<svg xmlns="http://www.w3.org/2000/svg" xmlns:xlink="http://www.w3.org/1999/xlink" xmlns:lucid="lucid" width="1796" height="1030"><g transform="translate(161 -103)" lucid:page-tab-id="0_0"><path d="M-500 0h2500v1500H-500z" fill="#fff"/><path d="M540 126a6 6 0 0 1 6-6h362a6 6 0 0 1 6 6v224a6 6 0 0 1-6 6H546a6 6 0 0 1-6-6z" stroke="#000" stroke-width="2" fill="#fff"/><path d="M540 162.9h374M540 291.8h374" stroke="#000" stroke-width="2" fill="none"/><use xlink:href="#a" transform="matrix(1,0,0,1,548,128) translate(147.517578125 21.58376736111111)"/><use xlink:href="#b" transform="matrix(1,0,0,1,552,170.88802083333334) translate(0 32.318142361111114)"/><use xlink:href="#c" transform="matrix(1,0,0,1,552,170.88802083333334) translate(32.03125 32.318142361111114)"/><use xlink:href="#d" transform="matrix(1,0,0,1,552,170.88802083333334) translate(0 64.58376736111111)"/><use xlink:href="#e" transform="matrix(1,0,0,1,552,170.88802083333334) translate(111.92491319444446 64.58376736111111)"/><use xlink:href="#f" transform="matrix(1,0,0,1,552,170.88802083333334) translate(0 96.84939236111111)"/><use xlink:href="#g" transform="matrix(1,0,0,1,552,170.88802083333334) translate(165.1909722222222 96.84939236111111)"/><path d="M1180 110a6 6 0 0 1 6-6h362a6 6 0 0 1 6 6v256a6 6 0 0 1-6 6h-362a6 6 0 0 1-6-6z" stroke="#000" stroke-width="2" fill="#fff"/><path d="M1180 146.9h374m-374 161.17h374" stroke="#000" stroke-width="2" fill="none"/><use xlink:href="#h" transform="matrix(1,0,0,1,1188,112) translate(158.63953993055554 21.58376736111111)"/><use xlink:href="#i" transform="matrix(1,0,0,1,1192,154.88802083333334) translate(0 32.685329861111114)"/><use xlink:href="#j" transform="matrix(1,0,0,1,1192,154.88802083333334) translate(32.03125 32.685329861111114)"/><use xlink:href="#k" transform="matrix(1,0,0,1,1192,154.88802083333334) translate(0 64.95095486111111)"/><use xlink:href="#l" transform="matrix(1,0,0,1,1192,154.88802083333334) translate(90.66840277777776 64.95095486111111)"/><use xlink:href="#i" transform="matrix(1,0,0,1,1192,154.88802083333334) translate(0 97.21657986111111)"/><use xlink:href="#m" transform="matrix(1,0,0,1,1192,154.88802083333334) translate(32.03125 97.21657986111111)"/><use xlink:href="#n" transform="matrix(1,0,0,1,1192,154.88802083333334) translate(0 129.48220486111111)"/><use xlink:href="#o" transform="matrix(1,0,0,1,1192,154.88802083333334) translate(99.46831597222223 129.48220486111111)"/><path d="M440 626a6 6 0 0 1 6-6h362a6 6 0 0 1 6 6v192a6 6 0 0 1-6 6H446a6 6 0 0 1-6-6z" stroke="#000" stroke-width="2" fill="#fff"/><path d="M440 662.9h374m-374 96.64h374" stroke="#000" stroke-width="2" fill="none"/><use xlink:href="#p" transform="matrix(1,0,0,1,448,628) translate(136.42816840277777 21.58376736111111)"/><use xlink:href="#q" transform="matrix(1,0,0,1,452,670.8880208333334) translate(0 32.450954861111114)"/><use xlink:href="#r" transform="matrix(1,0,0,1,452,670.8880208333334) translate(68.63064236111111 32.450954861111114)"/><use xlink:href="#i" transform="matrix(1,0,0,1,452,670.8880208333334) translate(0 64.71657986111111)"/><use xlink:href="#s" transform="matrix(1,0,0,1,452,670.8880208333334) translate(32.03125 64.71657986111111)"/><use xlink:href="#t" transform="matrix(1,0,0,1,452,767.5416666666667) translate(0 32.583767361111114)"/><use xlink:href="#u" transform="matrix(1,0,0,1,452,767.5416666666667) translate(50.61848958333333 32.583767361111114)"/><use xlink:href="#v" transform="matrix(1,0,0,1,452,767.5416666666667) translate(294.6940104166667 32.583767361111114)"/><path d="M980 642a6 6 0 0 1 6-6h362a6 6 0 0 1 6 6v160a6 6 0 0 1-6 6H986a6 6 0 0 1-6-6z" stroke="#000" stroke-width="2" fill="#fff"/><path d="M980 678.9h374m-374 64.38h374" stroke="#000" stroke-width="2" fill="none"/><use xlink:href="#w" transform="matrix(1,0,0,1,988,644) translate(130.97026909722223 21.58376736111111)"/><use xlink:href="#b" transform="matrix(1,0,0,1,992,686.8880208333334) translate(0 32.583767361111114)"/><use xlink:href="#x" transform="matrix(1,0,0,1,992,686.8880208333334) translate(32.03125 32.583767361111114)"/><use xlink:href="#y" transform="matrix(1,0,0,1,992,686.8880208333334) translate(92.25260416666666 32.583767361111114)"/><path d="M700 966a6 6 0 0 1 6-6h362a6 6 0 0 1 6 6v160a6 6 0 0 1-6 6H706a6 6 0 0 1-6-6z" stroke="#000" stroke-width="2" fill="#fff"/><path d="M700 1002.9h374m-374 64.38h374" stroke="#000" stroke-width="2" fill="none"/><use xlink:href="#z" transform="matrix(1,0,0,1,708,968) translate(146.04188368055554 21.58376736111111)"/><path d="M1260 966a6 6 0 0 1 6-6h362a6 6 0 0 1 6 6v160a6 6 0 0 1-6 6h-362a6 6 0 0 1-6-6z" stroke="#000" stroke-width="2" fill="#fff"/><path d="M1260 1002.9h374m-374 64.38h374" stroke="#000" stroke-width="2" fill="none"/><use xlink:href="#A" transform="matrix(1,0,0,1,1268,968) translate(141.61480034722223 21.58376736111111)"/><path d="M887 958.5V890a6 6 0 0 1 6-6h199.2a6 6 0 0 0 6-6v-38.63" stroke="#3a414a" fill="none"/><path d="M887.48 959h-.95v-.5h.95z" stroke="#3a414a" stroke-width=".05" fill="#3a414a"/><path d="M1098.2 809.7l-14.85 14.86 14.85 14.85 14.85-14.84z" stroke="#3a414a" fill="#fff"/><path d="M1447 958.5V890a6 6 0 0 0-6-6h-197.34a6 6 0 0 1-6-6v-38.63" stroke="#3a414a" fill="none"/><path d="M1447.48 959h-.95v-.5h.95z" stroke="#3a414a" stroke-width=".05" fill="#3a414a"/><path d="M1237.66 809.7l-14.85 14.86 14.86 14.85 14.85-14.84z" stroke="#3a414a" fill="#fff"/><path d="M915.5 238h233.13" stroke="#3a414a" fill="none"/><path d="M915.5 238.47h-.5v-.94h.5z" stroke="#3a414a" stroke-width=".05" fill="#3a414a"/><path d="M1178.3 238l-14.86-14.85L1148.6 238l14.84 14.85z" stroke="#3a414a" fill="#3a414a"/><path d="M-160 110a6 6 0 0 1 6-6h362a6 6 0 0 1 6 6v224a6 6 0 0 1-6 6h-362a6 6 0 0 1-6-6z" stroke="#000" stroke-width="2" fill="#fff"/><path d="M-160 146.9h374m-374 128.9h374" stroke="#000" stroke-width="2" fill="none"/><use xlink:href="#B" transform="matrix(1,0,0,1,-152,112) translate(147.95160590277777 21.58376736111111)"/><g><use xlink:href="#C" transform="matrix(1,0,0,1,-148,154.88802083333334) translate(0 32.318142361111114)"/><use xlink:href="#D" transform="matrix(1,0,0,1,-148,154.88802083333334) translate(68.41362847222221 32.318142361111114)"/><use xlink:href="#E" transform="matrix(1,0,0,1,-148,154.88802083333334) translate(0 64.58376736111111)"/><use xlink:href="#F" transform="matrix(1,0,0,1,-148,154.88802083333334) translate(0 96.84939236111111)"/><use xlink:href="#G" transform="matrix(1,0,0,1,-148,154.88802083333334) translate(53.3203125 96.84939236111111)"/></g><path d="M215.5 222h293.13" stroke="#3a414a" fill="none"/><path d="M215.5 222.47h-.5v-.94h.5z" stroke="#3a414a" stroke-width=".05" fill="#3a414a"/><path d="M538.3 222l-14.86-14.85L508.6 222l14.84 14.85z" stroke="#3a414a" fill="#3a414a"/><path d="M27 341.5V474a6 6 0 0 0 6 6h588a6 6 0 0 1 6 6v102.63" stroke="#3a414a" fill="none"/><path d="M27.48 341.5h-.95v-.5h.95z" stroke="#3a414a" stroke-width=".05" fill="#3a414a"/><path d="M627 618.3l14.85-14.86L627 588.6l-14.85 14.84z" stroke="#3a414a" fill="#3a414a"/><path d="M-140 646a6 6 0 0 1 6-6h362a6 6 0 0 1 6 6v160a6 6 0 0 1-6 6h-362a6 6 0 0 1-6-6z" stroke="#000" stroke-width="2" fill="#fff"/><path d="M-140 682.9h374m-374 64.38h374" stroke="#000" stroke-width="2" fill="none"/><g><use xlink:href="#H" transform="matrix(1,0,0,1,-132,648) translate(155.30837673611111 21.58376736111111)"/></g><g><use xlink:href="#b" transform="matrix(1,0,0,1,-128,690.8880208333334) translate(0 32.583767361111114)"/><use xlink:href="#I" transform="matrix(1,0,0,1,-128,690.8880208333334) translate(32.03125 32.583767361111114)"/></g><g><use xlink:href="#b" transform="matrix(1,0,0,1,-128,755.2760416666667) translate(0 32.583767361111114)"/><use xlink:href="#J" transform="matrix(1,0,0,1,-128,755.2760416666667) translate(32.03125 32.583767361111114)"/></g><path d="M27 341.5v267.12" stroke="#3a414a" fill="none"/><path d="M27.48 341.5h-.95v-.5h.95z" stroke="#3a414a" stroke-width=".05" fill="#3a414a"/><path d="M27 638.3l14.85-14.86L27 608.6l-14.85 14.84z" stroke="#3a414a" fill="#3a414a"/><path d="M727 357.5V490a6 6 0 0 0 6 6h363.6a6 6 0 0 1 6 6v102.63" stroke="#3a414a" fill="none"/><path d="M727.48 357.5h-.95v-.5h.95z" stroke="#3a414a" stroke-width=".05" fill="#3a414a"/><path d="M1102.6 634.3l14.85-14.86-14.85-14.85-14.85 14.84z" stroke="#3a414a" fill="#3a414a"/><defs><path d="M135 0v-1490h591c327 0 492 160 492 383 0 177-115 286-268 320v15c168 8 326 140 326 361 0 236-176 411-512 411H135zm305-251h264c179 0 258-76 258-189 0-125-97-215-250-215H440v404zm0-613h241c131 0 228-74 228-194 0-109-79-183-222-183H440v377" id="K"/><path d="M628 22C291 22 81-210 81-554c0-346 210-578 547-578 336 0 547 232 547 578 0 344-211 576-547 576zm0-236c160 0 242-146 242-341 0-197-82-341-242-341S387-753 387-555c0 195 81 341 241 341" id="L"/><path d="M440 22C227 22 68-92 68-313c0-250 202-322 422-343 195-21 271-24 271-105 0-95-63-149-175-149-116 0-187 57-211 129l-275-46c57-194 237-305 487-305 240 0 474 108 474 379V0H777v-155h-10C713-51 605 22 440 22zm85-211c140 0 238-93 238-211v-121c-37 26-156 42-222 51-111 16-185 59-185 149 0 87 70 132 169 132" id="M"/><path d="M128 0v-1118h290v195h12c54-169 184-238 367-200v268c-27-8-86-15-130-15-138 0-239 95-239 234V0H128" id="N"/><path d="M537 19C279 19 81-185 81-557c0-382 206-575 454-575 190 0 278 113 318 202h10v-560h300V0H868v-179h-15C812-89 719 19 537 19zm92-241c153 0 240-134 240-336 0-203-86-334-240-334-158 0-240 138-240 334 0 197 84 336 240 336" id="O"/><g id="a"><use transform="matrix(0.010850694444444444,0,0,0.010850694444444444,0,0)" xlink:href="#K"/><use transform="matrix(0.010850694444444444,0,0,0.010850694444444444,14.702690972222221,0)" xlink:href="#L"/><use transform="matrix(0.010850694444444444,0,0,0.010850694444444444,28.548177083333332,0)" xlink:href="#M"/><use transform="matrix(0.010850694444444444,0,0,0.010850694444444444,41.44965277777778,0)" xlink:href="#N"/><use transform="matrix(0.010850694444444444,0,0,0.010850694444444444,49.95659722222222,0)" xlink:href="#O"/></g><path d="M158 0v-1118h180V0H158zm91-1301c-68 0-125-53-125-119s57-119 125-119c69 0 126 53 126 119s-57 119-126 119" id="P"/><path d="M338-670V0H158v-1118h173l1 207c72-158 192-221 342-221 226 0 378 139 378 422V0H872v-695c0-172-96-275-252-275-161 0-282 109-282 300" id="Q"/><path d="M598-1118v154H368v674c0 100 37 144 132 144 23 0 62-6 92-12L629-6c-37 13-88 20-134 20-193 0-307-107-307-290v-688H20v-154h168v-266h180v266h230" id="R"/><g id="b"><use transform="matrix(0.010850694444444444,0,0,0.010850694444444444,0,0)" xlink:href="#P"/><use transform="matrix(0.010850694444444444,0,0,0.010850694444444444,5.381944444444445,0)" xlink:href="#Q"/><use transform="matrix(0.010850694444444444,0,0,0.010850694444444444,18.51128472222222,0)" xlink:href="#R"/></g><path d="M538 24C308 24 148-78 108-271l171-41c32 123 123 178 257 178 156 0 256-77 256-169 0-77-54-128-164-154l-186-44c-203-48-300-148-300-305 0-192 176-326 414-326 230 0 351 112 402 269l-163 42c-31-80-94-158-238-158-133 0-233 69-233 162 0 83 57 129 188 160l169 40c203 48 298 149 298 302 0 196-179 339-441 339" id="S"/><path d="M126 0v-134l627-806v-11H146v-167h839v143L376-178v11h629V0H126" id="T"/><path d="M628 24c-324 0-524-230-524-574 0-343 198-582 503-582 237 0 487 146 487 559v75H286c9 234 145 362 343 362 132 0 231-58 273-172l174 48C1024-91 857 24 628 24zM287-650h624c-17-190-120-322-304-322-192 0-309 151-320 322" id="U"/><g id="c"><use transform="matrix(0.010850694444444444,0,0,0.010850694444444444,0,0)" xlink:href="#S"/><use transform="matrix(0.010850694444444444,0,0,0.010850694444444444,11.729600694444445,0)" xlink:href="#P"/><use transform="matrix(0.010850694444444444,0,0,0.010850694444444444,17.11154513888889,0)" xlink:href="#T"/><use transform="matrix(0.010850694444444444,0,0,0.010850694444444444,29.05815972222222,0)" xlink:href="#U"/></g><path d="M180 0v-1490h190v1322h690V0H180" id="V"/><path d="M174-520v-126l944-476v196L406-588v12l712 338v194" id="W"/><path d="M783 20c-382 0-661-292-661-764 0-473 279-766 661-766 302 0 548 182 601 489h-190c-42-204-217-313-411-313-268 0-476 208-476 590 0 381 209 588 476 588 195 0 369-110 411-313h190c-52 303-296 489-601 489" id="X"/><path d="M338-1490V0H158v-1490h180" id="Y"/><path d="M1181-520L237-44v-194l712-338v-12L237-926v-196l944 476v126" id="Z"/><g id="d"><use transform="matrix(0.010850694444444444,0,0,0.010850694444444444,0,0)" xlink:href="#V"/><use transform="matrix(0.010850694444444444,0,0,0.010850694444444444,12.565104166666666,0)" xlink:href="#P"/><use transform="matrix(0.010850694444444444,0,0,0.010850694444444444,17.94704861111111,0)" xlink:href="#S"/><use transform="matrix(0.010850694444444444,0,0,0.010850694444444444,29.67664930555556,0)" xlink:href="#R"/><use transform="matrix(0.010850694444444444,0,0,0.010850694444444444,36.31727430555556,0)" xlink:href="#W"/><use transform="matrix(0.010850694444444444,0,0,0.010850694444444444,51.01996527777778,0)" xlink:href="#X"/><use transform="matrix(0.010850694444444444,0,0,0.010850694444444444,67.25260416666667,0)" xlink:href="#U"/><use transform="matrix(0.010850694444444444,0,0,0.010850694444444444,80.20833333333334,0)" xlink:href="#Y"/><use transform="matrix(0.010850694444444444,0,0,0.010850694444444444,85.59027777777779,0)" xlink:href="#Y"/><use transform="matrix(0.010850694444444444,0,0,0.010850694444444444,90.97222222222221,0)" xlink:href="#Z"/></g><path d="M613 24c-304 0-509-231-509-576 0-350 205-580 509-580 216 0 392 114 453 309l-173 49c-33-115-133-197-280-197-223 0-326 196-326 419 0 220 103 415 326 415 150 0 252-85 285-206l172 49C1010-95 832 24 613 24" id="aa"/><g id="e"><use transform="matrix(0.010850694444444444,0,0,0.010850694444444444,0,0)" xlink:href="#aa"/><use transform="matrix(0.010850694444444444,0,0,0.010850694444444444,12.6953125,0)" xlink:href="#U"/><use transform="matrix(0.010850694444444444,0,0,0.010850694444444444,25.651041666666664,0)" xlink:href="#Y"/><use transform="matrix(0.010850694444444444,0,0,0.010850694444444444,31.032986111111104,0)" xlink:href="#Y"/><use transform="matrix(0.010850694444444444,0,0,0.010850694444444444,36.41493055555555,0)" xlink:href="#S"/></g><path d="M784 20c-382 0-662-292-662-764 0-473 280-766 662-766s660 293 660 766c0 472-278 764-660 764zm0-176c266 0 475-207 475-588 0-383-209-590-475-590-268 0-477 208-477 590 0 380 209 588 477 588" id="ab"/><path d="M677 24c-213 0-288-135-325-197h-20V0H158v-1490h180v551h14c37-59 106-193 324-193 279 0 474 222 474 576 0 356-194 580-473 580zm-27-161c209 0 317-186 317-421 0-232-105-413-317-413-206 0-314 166-314 413 0 249 111 421 314 421" id="ac"/><path d="M471 26C259 26 90-98 90-318c0-256 228-303 435-329 202-27 287-16 287-108 0-139-79-219-234-219-161 0-248 86-283 164l-173-57c86-203 278-265 451-265 150 0 419 46 419 395V0H815v-152h-12C765-73 660 26 471 26zm31-159c199 0 310-134 310-271v-155c-30 35-226 55-295 64-131 17-246 59-246 186 0 116 97 176 231 176" id="ad"/><g id="f"><use transform="matrix(0.010850694444444444,0,0,0.010850694444444444,0,0)" xlink:href="#V"/><use transform="matrix(0.010850694444444444,0,0,0.010850694444444444,12.565104166666666,0)" xlink:href="#P"/><use transform="matrix(0.010850694444444444,0,0,0.010850694444444444,17.94704861111111,0)" xlink:href="#S"/><use transform="matrix(0.010850694444444444,0,0,0.010850694444444444,29.67664930555556,0)" xlink:href="#R"/><use transform="matrix(0.010850694444444444,0,0,0.010850694444444444,36.31727430555556,0)" xlink:href="#W"/><use transform="matrix(0.010850694444444444,0,0,0.010850694444444444,51.01996527777778,0)" xlink:href="#ab"/><use transform="matrix(0.010850694444444444,0,0,0.010850694444444444,68.01215277777777,0)" xlink:href="#ac"/><use transform="matrix(0.010850694444444444,0,0,0.010850694444444444,81.6189236111111,0)" xlink:href="#S"/><use transform="matrix(0.010850694444444444,0,0,0.010850694444444444,93.34852430555556,0)" xlink:href="#R"/><use transform="matrix(0.010850694444444444,0,0,0.010850694444444444,100.72699652777776,0)" xlink:href="#ad"/><use transform="matrix(0.010850694444444444,0,0,0.010850694444444444,113.20529513888887,0)" xlink:href="#aa"/><use transform="matrix(0.010850694444444444,0,0,0.010850694444444444,125.90060763888887,0)" xlink:href="#Y"/><use transform="matrix(0.010850694444444444,0,0,0.010850694444444444,131.28255208333331,0)" xlink:href="#U"/><use transform="matrix(0.010850694444444444,0,0,0.010850694444444444,144.23828124999997,0)" xlink:href="#Z"/></g><path d="M613 24c-304 0-509-231-509-576 0-350 205-580 509-580 305 0 511 230 511 580 0 345-206 576-511 576zm0-161c226 0 329-195 329-415 0-222-103-419-329-419-223 0-326 196-326 419 0 220 103 415 326 415" id="ae"/><g id="g"><use transform="matrix(0.010850694444444444,0,0,0.010850694444444444,0,0)" xlink:href="#ae"/><use transform="matrix(0.010850694444444444,0,0,0.010850694444444444,13.324652777777777,0)" xlink:href="#ac"/><use transform="matrix(0.010850694444444444,0,0,0.010850694444444444,26.931423611111104,0)" xlink:href="#S"/><use transform="matrix(0.010850694444444444,0,0,0.010850694444444444,38.66102430555555,0)" xlink:href="#R"/><use transform="matrix(0.010850694444444444,0,0,0.010850694444444444,46.03949652777778,0)" xlink:href="#ad"/><use transform="matrix(0.010850694444444444,0,0,0.010850694444444444,58.517795138888886,0)" xlink:href="#aa"/><use transform="matrix(0.010850694444444444,0,0,0.010850694444444444,71.21310763888889,0)" xlink:href="#Y"/><use transform="matrix(0.010850694444444444,0,0,0.010850694444444444,76.59505208333333,0)" xlink:href="#U"/><use transform="matrix(0.010850694444444444,0,0,0.010850694444444444,89.55078125,0)" xlink:href="#S"/></g><path d="M786 20C389 20 94-260 94-744c0-487 299-766 692-766 339 0 597 194 641 529h-309c-28-162-156-258-326-258-233 0-388 179-388 495 0 323 157 493 387 493 170 0 298-97 328-259h309c-34 277-266 530-642 530" id="af"/><path d="M633 22C291 22 81-200 81-553c0-345 210-579 537-579 292 0 525 185 525 567v84H378c7 183 109 277 260 277 105 0 184-46 216-132l272 51C1071-99 893 22 633 22zM380-669h474c-15-146-94-237-233-237-143 0-229 99-241 237" id="ag"/><path d="M428-1490V0H128v-1490h300" id="ah"/><g id="h"><use transform="matrix(0.010850694444444444,0,0,0.010850694444444444,0,0)" xlink:href="#af"/><use transform="matrix(0.010850694444444444,0,0,0.010850694444444444,16.438802083333332,0)" xlink:href="#ag"/><use transform="matrix(0.010850694444444444,0,0,0.010850694444444444,29.676649305555554,0)" xlink:href="#ah"/><use transform="matrix(0.010850694444444444,0,0,0.010850694444444444,35.69878472222222,0)" xlink:href="#ah"/></g><g id="i"><use transform="matrix(0.010850694444444444,0,0,0.010850694444444444,0,0)" xlink:href="#P"/><use transform="matrix(0.010850694444444444,0,0,0.010850694444444444,5.381944444444445,0)" xlink:href="#Q"/><use transform="matrix(0.010850694444444444,0,0,0.010850694444444444,18.51128472222222,0)" xlink:href="#R"/></g><path d="M577 24c-279 0-473-224-473-580 0-354 195-576 474-576 218 0 287 134 324 193h14v-551h180V0H922v-173h-20C865-111 790 24 577 24zm27-161c203 0 314-172 314-421 0-247-108-413-314-413-212 0-317 181-317 413 0 235 108 421 317 421" id="ai"/><path d="M128 359l88-567h206L266 359H128zM323-796c-75 0-135-60-135-135s60-135 135-135 135 60 135 135-60 135-135 135" id="aj"/><g id="j"><use transform="matrix(0.010850694444444444,0,0,0.010850694444444444,0,0)" xlink:href="#P"/><use transform="matrix(0.010850694444444444,0,0,0.010850694444444444,5.381944444444445,0)" xlink:href="#ai"/><use transform="matrix(0.010850694444444444,0,0,0.010850694444444444,18.98871527777778,0)" xlink:href="#aj"/></g><g id="k"><use transform="matrix(0.010850694444444444,0,0,0.010850694444444444,0,0)" xlink:href="#ac"/><use transform="matrix(0.010850694444444444,0,0,0.010850694444444444,13.606770833333332,0)" xlink:href="#ae"/><use transform="matrix(0.010850694444444444,0,0,0.010850694444444444,26.931423611111104,0)" xlink:href="#ae"/><use transform="matrix(0.010850694444444444,0,0,0.010850694444444444,40.256076388888886,0)" xlink:href="#Y"/><use transform="matrix(0.010850694444444444,0,0,0.010850694444444444,45.63802083333333,0)" xlink:href="#U"/><use transform="matrix(0.010850694444444444,0,0,0.010850694444444444,58.81076388888888,0)" xlink:href="#ad"/><use transform="matrix(0.010850694444444444,0,0,0.010850694444444444,71.28906249999999,0)" xlink:href="#Q"/></g><path d="M338-670V0H158v-1490h180v566c73-149 190-208 336-208 226 0 379 139 379 422V0H872v-695c0-172-96-275-252-275-161 0-282 109-282 300" id="ak"/><g id="l"><use transform="matrix(0.010850694444444444,0,0,0.010850694444444444,0,0)" xlink:href="#ak"/><use transform="matrix(0.010850694444444444,0,0,0.010850694444444444,13.140190972222221,0)" xlink:href="#ad"/><use transform="matrix(0.010850694444444444,0,0,0.010850694444444444,25.618489583333332,0)" xlink:href="#S"/><use transform="matrix(0.010850694444444444,0,0,0.010850694444444444,37.34809027777778,0)" xlink:href="#ab"/><use transform="matrix(0.010850694444444444,0,0,0.010850694444444444,54.34027777777778,0)" xlink:href="#ac"/><use transform="matrix(0.010850694444444444,0,0,0.010850694444444444,67.94704861111111,0)" xlink:href="#S"/><use transform="matrix(0.010850694444444444,0,0,0.010850694444444444,79.67664930555556,0)" xlink:href="#R"/><use transform="matrix(0.010850694444444444,0,0,0.010850694444444444,87.05512152777777,0)" xlink:href="#ad"/><use transform="matrix(0.010850694444444444,0,0,0.010850694444444444,99.53342013888889,0)" xlink:href="#aa"/><use transform="matrix(0.010850694444444444,0,0,0.010850694444444444,112.22873263888889,0)" xlink:href="#Y"/><use transform="matrix(0.010850694444444444,0,0,0.010850694444444444,117.61067708333333,0)" xlink:href="#U"/><use transform="matrix(0.010850694444444444,0,0,0.010850694444444444,130.56640625,0)" xlink:href="#aj"/></g><path d="M65 0l393-574-370-544h210c88 136 192 297 267 435 67-142 176-302 264-435h206L661-564 1053 0H844c-94-144-206-310-287-458C484-308 366-142 273 0H65" id="al"/><g id="m"><use transform="matrix(0.010850694444444444,0,0,0.010850694444444444,0,0)" xlink:href="#Q"/><use transform="matrix(0.010850694444444444,0,0,0.010850694444444444,13.129340277777777,0)" xlink:href="#U"/><use transform="matrix(0.010850694444444444,0,0,0.010850694444444444,25.5859375,0)" xlink:href="#al"/><use transform="matrix(0.010850694444444444,0,0,0.010850694444444444,38.15104166666667,0)" xlink:href="#R"/><use transform="matrix(0.010850694444444444,0,0,0.010850694444444444,45.42100694444445,0)" xlink:href="#X"/><use transform="matrix(0.010850694444444444,0,0,0.010850694444444444,61.65364583333334,0)" xlink:href="#U"/><use transform="matrix(0.010850694444444444,0,0,0.010850694444444444,74.60937500000001,0)" xlink:href="#Y"/><use transform="matrix(0.010850694444444444,0,0,0.010850694444444444,79.99131944444446,0)" xlink:href="#Y"/><use transform="matrix(0.010850694444444444,0,0,0.010850694444444444,85.3732638888889,0)" xlink:href="#aj"/></g><g id="n"><use transform="matrix(0.010850694444444444,0,0,0.010850694444444444,0,0)" xlink:href="#ab"/><use transform="matrix(0.010850694444444444,0,0,0.010850694444444444,16.9921875,0)" xlink:href="#ac"/><use transform="matrix(0.010850694444444444,0,0,0.010850694444444444,30.598958333333332,0)" xlink:href="#S"/><use transform="matrix(0.010850694444444444,0,0,0.010850694444444444,42.32855902777778,0)" xlink:href="#R"/><use transform="matrix(0.010850694444444444,0,0,0.010850694444444444,49.70703125,0)" xlink:href="#ad"/><use transform="matrix(0.010850694444444444,0,0,0.010850694444444444,62.18532986111112,0)" xlink:href="#aa"/><use transform="matrix(0.010850694444444444,0,0,0.010850694444444444,74.88064236111111,0)" xlink:href="#Y"/><use transform="matrix(0.010850694444444444,0,0,0.010850694444444444,80.26258680555556,0)" xlink:href="#U"/></g><g id="o"><use transform="matrix(0.010850694444444444,0,0,0.010850694444444444,0,0)" xlink:href="#ae"/><use transform="matrix(0.010850694444444444,0,0,0.010850694444444444,13.324652777777777,0)" xlink:href="#ac"/><use transform="matrix(0.010850694444444444,0,0,0.010850694444444444,26.931423611111104,0)" xlink:href="#S"/><use transform="matrix(0.010850694444444444,0,0,0.010850694444444444,38.66102430555555,0)" xlink:href="#R"/><use transform="matrix(0.010850694444444444,0,0,0.010850694444444444,46.03949652777778,0)" xlink:href="#ad"/><use transform="matrix(0.010850694444444444,0,0,0.010850694444444444,58.517795138888886,0)" xlink:href="#aa"/><use transform="matrix(0.010850694444444444,0,0,0.010850694444444444,71.21310763888889,0)" xlink:href="#Y"/><use transform="matrix(0.010850694444444444,0,0,0.010850694444444444,76.59505208333333,0)" xlink:href="#U"/></g><path d="M135 0v-1490h581c339 0 533 210 533 503 0 295-197 500-540 500H440V0H135zm305-733h220c186 0 274-104 274-254s-88-251-275-251H440v505" id="am"/><path d="M135 0v-1490h305v1237h643V0H135" id="an"/><path d="M49 0l509-1490h400L1480 0h-339l-115-346H497L386 0H49zm524-585h374c-75-213-124-402-192-666-66 268-110 453-182 666" id="ao"/><path d="M601 0v-560L49-1490h357l252 464c38 68 67 130 97 208 96-243 225-446 337-672h356L905-560V0H601" id="ap"/><path d="M135 0v-1490h997v253H440v360h640v249H440v375h694V0H135" id="aq"/><path d="M135 0v-1490h581c339 0 533 192 533 485 0 204-94 351-264 424L1302 0H964L680-532H440V0H135zm305-779h220c186 0 274-77 274-226 0-150-88-233-275-233H440v459" id="ar"/><g id="p"><use transform="matrix(0.010850694444444444,0,0,0.010850694444444444,0,0)" xlink:href="#am"/><use transform="matrix(0.010850694444444444,0,0,0.010850694444444444,14.398871527777777,0)" xlink:href="#an"/><use transform="matrix(0.010850694444444444,0,0,0.010850694444444444,26.963975694444443,0)" xlink:href="#ao"/><use transform="matrix(0.010850694444444444,0,0,0.010850694444444444,41.80772569444444,0)" xlink:href="#ap"/><use transform="matrix(0.010850694444444444,0,0,0.010850694444444444,58.05121527777778,0)" xlink:href="#aq"/><use transform="matrix(0.010850694444444444,0,0,0.010850694444444444,71.54947916666666,0)" xlink:href="#ar"/></g><path d="M657 26c-323 0-524-166-541-416h195c15 169 171 246 346 246 202 0 356-106 356-265 5-203-294-238-475-293-239-73-380-191-380-389 0-252 224-419 512-419 294 0 499 171 508 396H992c-17-145-151-228-328-228-193 0-321 102-321 242 0 156 175 211 284 241l149 41c160 44 422 134 422 412 0 244-197 432-541 432" id="as"/><path d="M158 0v-1118h174v172h12c41-113 157-188 290-188 26 0 70 2 91 3v181c-11-2-60-10-108-10-161 0-279 109-279 260V0H158" id="at"/><path d="M611 442c-248 0-391-105-460-228l146-94c47 65 117 165 314 165 178 0 307-82 307-266v-224h-17C863-141 792-18 576-18c-268 0-472-195-472-546 0-346 197-568 476-568 216 0 288 133 326 193h17v-179h175V29c0 289-215 413-487 413zm-5-620c203 0 314-146 314-390 0-237-108-403-314-403-213 0-319 180-319 403 0 230 109 390 319 390" id="au"/><g id="q"><use transform="matrix(0.010850694444444444,0,0,0.010850694444444444,0,0)" xlink:href="#as"/><use transform="matrix(0.010850694444444444,0,0,0.010850694444444444,14.2578125,0)" xlink:href="#R"/><use transform="matrix(0.010850694444444444,0,0,0.010850694444444444,21.52777777777778,0)" xlink:href="#at"/><use transform="matrix(0.010850694444444444,0,0,0.010850694444444444,30.240885416666664,0)" xlink:href="#P"/><use transform="matrix(0.010850694444444444,0,0,0.010850694444444444,35.62282986111111,0)" xlink:href="#Q"/><use transform="matrix(0.010850694444444444,0,0,0.010850694444444444,48.752170138888886,0)" xlink:href="#au"/></g><path d="M158 0v-1118h175l1 205c55-151 181-225 313-225 147 0 245 90 285 228 53-141 190-228 352-228 194 0 352 125 352 384V0h-181v-749c0-161-105-225-225-225-151 0-243 103-243 244V0H807v-767c0-124-93-207-219-207-131 0-250 92-250 270V0H158" id="av"/><g id="r"><use transform="matrix(0.010850694444444444,0,0,0.010850694444444444,0,0)" xlink:href="#Q"/><use transform="matrix(0.010850694444444444,0,0,0.010850694444444444,13.129340277777777,0)" xlink:href="#ad"/><use transform="matrix(0.010850694444444444,0,0,0.010850694444444444,25.60763888888889,0)" xlink:href="#av"/><use transform="matrix(0.010850694444444444,0,0,0.010850694444444444,45.07378472222221,0)" xlink:href="#U"/></g><path d="M537 14c-226 0-379-139-379-422v-710h180v695c0 172 97 275 253 275 160 0 281-109 281-300v-670h181V0H879v-209C806-46 684 14 537 14" id="aw"/><path d="M180 0v-1490h510c348 0 508 209 508 474 0 266-160 477-507 477H370V0H180zm190-706h312c236 0 327-133 327-310 0-176-91-307-329-307H370v617" id="ax"/><g id="s"><use transform="matrix(0.010850694444444444,0,0,0.010850694444444444,0,0)" xlink:href="#aa"/><use transform="matrix(0.010850694444444444,0,0,0.010850694444444444,12.6953125,0)" xlink:href="#aw"/><use transform="matrix(0.010850694444444444,0,0,0.010850694444444444,25.83550347222222,0)" xlink:href="#at"/><use transform="matrix(0.010850694444444444,0,0,0.010850694444444444,34.54861111111111,0)" xlink:href="#at"/><use transform="matrix(0.010850694444444444,0,0,0.010850694444444444,42.54557291666666,0)" xlink:href="#U"/><use transform="matrix(0.010850694444444444,0,0,0.010850694444444444,55.50130208333332,0)" xlink:href="#Q"/><use transform="matrix(0.010850694444444444,0,0,0.010850694444444444,68.6306423611111,0)" xlink:href="#R"/><use transform="matrix(0.010850694444444444,0,0,0.010850694444444444,75.90060763888887,0)" xlink:href="#ax"/><use transform="matrix(0.010850694444444444,0,0,0.010850694444444444,89.97395833333331,0)" xlink:href="#ae"/><use transform="matrix(0.010850694444444444,0,0,0.010850694444444444,103.29861111111109,0)" xlink:href="#S"/><use transform="matrix(0.010850694444444444,0,0,0.010850694444444444,115.02821180555553,0)" xlink:href="#P"/><use transform="matrix(0.010850694444444444,0,0,0.010850694444444444,120.41015624999997,0)" xlink:href="#R"/><use transform="matrix(0.010850694444444444,0,0,0.010850694444444444,127.68012152777773,0)" xlink:href="#P"/><use transform="matrix(0.010850694444444444,0,0,0.010850694444444444,133.0620659722222,0)" xlink:href="#ae"/><use transform="matrix(0.010850694444444444,0,0,0.010850694444444444,146.38671874999997,0)" xlink:href="#Q"/></g><path d="M481 0L54-1118h197c107 314 236 620 325 951 87-331 217-637 324-951h197L670 0H481" id="ay"/><g id="t"><use transform="matrix(0.010850694444444444,0,0,0.010850694444444444,0,0)" xlink:href="#ay"/><use transform="matrix(0.010850694444444444,0,0,0.010850694444444444,12.055121527777777,0)" xlink:href="#ae"/><use transform="matrix(0.010850694444444444,0,0,0.010850694444444444,25.379774305555554,0)" xlink:href="#P"/><use transform="matrix(0.010850694444444444,0,0,0.010850694444444444,30.76171875,0)" xlink:href="#ai"/></g><path d="M158 418v-1536h174v179h20c37-59 106-193 324-193 279 0 474 222 474 576 0 356-194 580-473 580-213 0-288-135-325-197h-14v591H158zm492-555c209 0 317-186 317-421 0-232-105-413-317-413-206 0-314 166-314 413 0 249 111 421 314 421" id="az"/><path d="M180 0v-1490h224l606 953c40 63 108 177 176 312-27-437-7-821-13-1265h190V0h-226C860-448 622-778 356-1262c27 476 11 792 15 1262H180" id="aA"/><path d="M409 0L70-1118h191c89 329 165 560 243 925 75-353 154-601 240-925h192c85 325 161 564 235 922 77-354 157-598 244-922h191L1267 0h-179c-86-307-176-590-250-913C763-588 675-308 588 0H409" id="aB"/><path d="M218-607c0-325 108-727 258-974h175c-155 315-250 682-250 974 0 265 78 531 250 886H476C306-10 218-315 218-607" id="aC"/><g id="u"><use transform="matrix(0.010850694444444444,0,0,0.010850694444444444,0,0)" xlink:href="#aw"/><use transform="matrix(0.010850694444444444,0,0,0.010850694444444444,13.140190972222221,0)" xlink:href="#az"/><use transform="matrix(0.010850694444444444,0,0,0.010850694444444444,26.746961805555554,0)" xlink:href="#ai"/><use transform="matrix(0.010850694444444444,0,0,0.010850694444444444,40.353732638888886,0)" xlink:href="#ad"/><use transform="matrix(0.010850694444444444,0,0,0.010850694444444444,52.83203125,0)" xlink:href="#R"/><use transform="matrix(0.010850694444444444,0,0,0.010850694444444444,59.8849826388889,0)" xlink:href="#U"/><use transform="matrix(0.010850694444444444,0,0,0.010850694444444444,72.84071180555556,0)" xlink:href="#aA"/><use transform="matrix(0.010850694444444444,0,0,0.010850694444444444,89.58333333333334,0)" xlink:href="#U"/><use transform="matrix(0.010850694444444444,0,0,0.010850694444444444,102.13758680555557,0)" xlink:href="#aB"/><use transform="matrix(0.010850694444444444,0,0,0.010850694444444444,120.32335069444446,0)" xlink:href="#ax"/><use transform="matrix(0.010850694444444444,0,0,0.010850694444444444,134.3967013888889,0)" xlink:href="#ae"/><use transform="matrix(0.010850694444444444,0,0,0.010850694444444444,147.72135416666669,0)" xlink:href="#S"/><use transform="matrix(0.010850694444444444,0,0,0.010850694444444444,159.45095486111114,0)" xlink:href="#P"/><use transform="matrix(0.010850694444444444,0,0,0.010850694444444444,164.8328993055556,0)" xlink:href="#R"/><use transform="matrix(0.010850694444444444,0,0,0.010850694444444444,172.10286458333337,0)" xlink:href="#P"/><use transform="matrix(0.010850694444444444,0,0,0.010850694444444444,177.48480902777783,0)" xlink:href="#ae"/><use transform="matrix(0.010850694444444444,0,0,0.010850694444444444,190.8094618055556,0)" xlink:href="#Q"/><use transform="matrix(0.010850694444444444,0,0,0.010850694444444444,203.93880208333337,0)" xlink:href="#aC"/><use transform="matrix(0.010850694444444444,0,0,0.010850694444444444,212.04427083333337,0)" xlink:href="#P"/><use transform="matrix(0.010850694444444444,0,0,0.010850694444444444,217.4262152777778,0)" xlink:href="#Q"/><use transform="matrix(0.010850694444444444,0,0,0.010850694444444444,230.5555555555556,0)" xlink:href="#R"/></g><path d="M96 279C273-86 346-350 346-607c0-292-95-659-250-974h175c150 246 258 650 258 974 0 297-91 602-258 886H96" id="aD"/><g id="v"><use transform="matrix(0.010850694444444444,0,0,0.010850694444444444,0,0)" xlink:href="#al"/><use transform="matrix(0.010850694444444444,0,0,0.010850694444444444,12.13107638888889,0)" xlink:href="#aD"/></g><path d="M789 20C394 20 94-260 94-744c0-487 300-766 695-766s695 279 695 766c0 485-300 764-695 764zm0-271c231 0 385-174 385-493 0-321-154-495-385-495s-385 175-385 495c0 319 154 493 385 493" id="aE"/><path d="M754 19C571 19 479-89 437-179h-14V0H128v-1490h300v560h9c41-89 129-202 319-202 248 0 453 193 453 575 0 372-197 576-455 576zm-92-241c156 0 240-139 240-336 0-196-83-334-240-334-154 0-241 131-241 334 0 202 88 336 241 336" id="aF"/><path d="M572 22C302 22 117-98 78-306l279-48c29 105 101 156 224 156 114 0 185-48 185-115 0-118-228-130-337-155-215-49-322-150-322-317 0-215 187-347 470-347 265 0 424 116 466 298l-266 47c-24-76-87-130-196-130-98 0-174 46-174 113 0 56 38 95 144 117l201 40c216 44 320 143 320 302 0 220-207 367-500 367" id="aG"/><path d="M683-1118v229H474v562c0 71 29 104 102 104 23 0 73-7 95-13l43 225C647 9 580 16 520 16 296 16 174-96 174-301v-588H20v-229h154v-266h300v266h209" id="aH"/><path d="M628 22C291 22 81-210 81-554c0-346 210-578 547-578 265 0 455 142 497 372l-279 52c-25-116-99-188-215-188-160 0-244 139-244 341 0 200 84 341 244 341 116 0 193-74 217-195l279 51C1085-123 896 22 628 22" id="aI"/><g id="w"><use transform="matrix(0.010850694444444444,0,0,0.010850694444444444,0,0)" xlink:href="#aE"/><use transform="matrix(0.010850694444444444,0,0,0.010850694444444444,17.122395833333332,0)" xlink:href="#aF"/><use transform="matrix(0.010850694444444444,0,0,0.010850694444444444,31.130642361111104,0)" xlink:href="#aG"/><use transform="matrix(0.010850694444444444,0,0,0.010850694444444444,43.576388888888886,0)" xlink:href="#aH"/><use transform="matrix(0.010850694444444444,0,0,0.010850694444444444,51.822916666666664,0)" xlink:href="#M"/><use transform="matrix(0.010850694444444444,0,0,0.010850694444444444,64.72439236111111,0)" xlink:href="#aI"/><use transform="matrix(0.010850694444444444,0,0,0.010850694444444444,77.79947916666667,0)" xlink:href="#ah"/><use transform="matrix(0.010850694444444444,0,0,0.010850694444444444,83.82161458333334,0)" xlink:href="#ag"/></g><path d="M128 359l88-567h206L266 359H128" id="aJ"/><g id="x"><use transform="matrix(0.010850694444444444,0,0,0.010850694444444444,0,0)" xlink:href="#S"/><use transform="matrix(0.010850694444444444,0,0,0.010850694444444444,11.729600694444445,0)" xlink:href="#R"/><use transform="matrix(0.010850694444444444,0,0,0.010850694444444444,19.108072916666668,0)" xlink:href="#ad"/><use transform="matrix(0.010850694444444444,0,0,0.010850694444444444,31.586371527777775,0)" xlink:href="#at"/><use transform="matrix(0.010850694444444444,0,0,0.010850694444444444,40.299479166666664,0)" xlink:href="#R"/><use transform="matrix(0.010850694444444444,0,0,0.010850694444444444,47.56944444444444,0)" xlink:href="#aJ"/></g><g id="y"><use transform="matrix(0.010850694444444444,0,0,0.010850694444444444,0,0)" xlink:href="#U"/><use transform="matrix(0.010850694444444444,0,0,0.010850694444444444,12.955729166666666,0)" xlink:href="#Q"/><use transform="matrix(0.010850694444444444,0,0,0.010850694444444444,26.085069444444443,0)" xlink:href="#ai"/></g><path d="M681 22C323 22 94-145 85-462h297c10 151 131 226 296 226 163 0 271-77 271-190 0-102-95-149-257-189l-164-41c-252-61-403-188-403-405 0-269 236-449 560-449 330 0 546 183 551 445H941c-11-119-106-188-259-188-156 0-244 72-244 172-3 156 226 185 373 221 250 61 445 186 445 436 0 271-213 446-575 446" id="aK"/><path d="M428-647V0H128v-1118h283l4 231c63-156 176-245 348-245 232 0 384 159 384 421V0H847v-659c0-139-76-222-202-222-128 0-217 86-217 234" id="aL"/><path d="M128 0v-1490h300v802h17l366-430h347L740-633 1179 0H826L514-456l-86 97V0H128" id="aM"/><g id="z"><use transform="matrix(0.010850694444444444,0,0,0.010850694444444444,0,0)" xlink:href="#aK"/><use transform="matrix(0.010850694444444444,0,0,0.010850694444444444,14.55078125,0)" xlink:href="#aL"/><use transform="matrix(0.010850694444444444,0,0,0.010850694444444444,28.385416666666664,0)" xlink:href="#M"/><use transform="matrix(0.010850694444444444,0,0,0.010850694444444444,41.28689236111111,0)" xlink:href="#aM"/><use transform="matrix(0.010850694444444444,0,0,0.010850694444444444,53.678385416666664,0)" xlink:href="#ag"/></g><g id="A"><use transform="matrix(0.010850694444444444,0,0,0.010850694444444444,0,0)" xlink:href="#an"/><use transform="matrix(0.010850694444444444,0,0,0.010850694444444444,12.565104166666666,0)" xlink:href="#M"/><use transform="matrix(0.010850694444444444,0,0,0.010850694444444444,25.46657986111111,0)" xlink:href="#O"/><use transform="matrix(0.010850694444444444,0,0,0.010850694444444444,39.474826388888886,0)" xlink:href="#O"/><use transform="matrix(0.010850694444444444,0,0,0.010850694444444444,53.483072916666664,0)" xlink:href="#ag"/><use transform="matrix(0.010850694444444444,0,0,0.010850694444444444,66.72092013888889,0)" xlink:href="#N"/></g><path d="M795 20C377 20 94-272 94-743c0-483 302-767 694-767 335 0 593 206 635 500h-310c-42-142-154-229-320-229-230 0-389 177-389 493s154 495 393 495c212 0 340-120 345-311H818v-232h620v186c0 391-269 628-643 628" id="aN"/><path d="M128 0v-1118h278l12 217c60-163 185-234 319-234 143 0 236 81 288 251 63-172 205-251 359-251 205 0 357 138 357 381V0h-301v-697c0-126-76-187-177-187-114 0-184 79-184 196V0H789v-705c0-109-72-179-174-179-106 0-187 74-187 208V0H128" id="aO"/><g id="B"><use transform="matrix(0.010850694444444444,0,0,0.010850694444444444,0,0)" xlink:href="#aN"/><use transform="matrix(0.010850694444444444,0,0,0.010850694444444444,16.67751736111111,0)" xlink:href="#M"/><use transform="matrix(0.010850694444444444,0,0,0.010850694444444444,29.57899305555556,0)" xlink:href="#aO"/><use transform="matrix(0.010850694444444444,0,0,0.010850694444444444,49.85894097222222,0)" xlink:href="#ag"/></g><path d="M180 0v-1490h528c311 0 458 177 458 395 0 191-114 278-244 313v14c139 9 302 137 302 371 0 225-148 397-499 397H180zm190-168h350c232 0 321-102 321-231 0-149-120-277-311-277H370v508zm0-668h328c160 0 286-101 286-255 0-129-87-231-280-231H370v486" id="aP"/><g id="C"><use transform="matrix(0.010850694444444444,0,0,0.010850694444444444,0,0)" xlink:href="#aP"/><use transform="matrix(0.010850694444444444,0,0,0.010850694444444444,14.539930555555555,0)" xlink:href="#ae"/><use transform="matrix(0.010850694444444444,0,0,0.010850694444444444,28.08159722222222,0)" xlink:href="#ad"/><use transform="matrix(0.010850694444444444,0,0,0.010850694444444444,40.55989583333333,0)" xlink:href="#at"/><use transform="matrix(0.010850694444444444,0,0,0.010850694444444444,48.55685763888888,0)" xlink:href="#ai"/></g><g id="D"><use transform="matrix(0.010850694444444444,0,0,0.010850694444444444,0,0)" xlink:href="#ac"/><use transform="matrix(0.010850694444444444,0,0,0.010850694444444444,13.606770833333332,0)" xlink:href="#ae"/><use transform="matrix(0.010850694444444444,0,0,0.010850694444444444,27.1484375,0)" xlink:href="#ad"/><use transform="matrix(0.010850694444444444,0,0,0.010850694444444444,39.626736111111114,0)" xlink:href="#at"/><use transform="matrix(0.010850694444444444,0,0,0.010850694444444444,47.623697916666664,0)" xlink:href="#ai"/><use transform="matrix(0.010850694444444444,0,0,0.010850694444444444,61.23046875,0)" xlink:href="#aj"/></g><path d="M140 405l46-156c120 36 205 19 263-150l32-93L54-1118h197c107 313 237 620 324 950 87-331 219-637 326-950h196L606 167c-68 178-176 259-334 259-64 0-113-12-132-21" id="aQ"/><g id="E"><use transform="matrix(0.010850694444444444,0,0,0.010850694444444444,0,0)" xlink:href="#V"/><use transform="matrix(0.010850694444444444,0,0,0.010850694444444444,12.565104166666666,0)" xlink:href="#P"/><use transform="matrix(0.010850694444444444,0,0,0.010850694444444444,17.94704861111111,0)" xlink:href="#S"/><use transform="matrix(0.010850694444444444,0,0,0.010850694444444444,29.67664930555556,0)" xlink:href="#R"/><use transform="matrix(0.010850694444444444,0,0,0.010850694444444444,36.31727430555556,0)" xlink:href="#W"/><use transform="matrix(0.010850694444444444,0,0,0.010850694444444444,51.01996527777778,0)" xlink:href="#ax"/><use transform="matrix(0.010850694444444444,0,0,0.010850694444444444,65.21267361111111,0)" xlink:href="#Y"/><use transform="matrix(0.010850694444444444,0,0,0.010850694444444444,70.59461805555556,0)" xlink:href="#ad"/><use transform="matrix(0.010850694444444444,0,0,0.010850694444444444,82.74739583333334,0)" xlink:href="#aQ"/><use transform="matrix(0.010850694444444444,0,0,0.010850694444444444,94.80251736111113,0)" xlink:href="#U"/><use transform="matrix(0.010850694444444444,0,0,0.010850694444444444,107.7582465277778,0)" xlink:href="#at"/><use transform="matrix(0.010850694444444444,0,0,0.010850694444444444,116.12413194444449,0)" xlink:href="#S"/><use transform="matrix(0.010850694444444444,0,0,0.010850694444444444,127.85373263888893,0)" xlink:href="#Z"/></g><path d="M645 0H180v-1490h484c435 0 692 280 692 742 0 466-257 748-711 748zM370-168h263c363 0 539-218 539-580 0-358-176-574-521-574H370v1154" id="aR"/><g id="F"><use transform="matrix(0.010850694444444444,0,0,0.010850694444444444,0,0)" xlink:href="#aR"/><use transform="matrix(0.010850694444444444,0,0,0.010850694444444444,16.03732638888889,0)" xlink:href="#P"/><use transform="matrix(0.010850694444444444,0,0,0.010850694444444444,21.419270833333336,0)" xlink:href="#aa"/><use transform="matrix(0.010850694444444444,0,0,0.010850694444444444,34.114583333333336,0)" xlink:href="#U"/></g><g id="G"><use transform="matrix(0.010850694444444444,0,0,0.010850694444444444,0,0)" xlink:href="#ai"/><use transform="matrix(0.010850694444444444,0,0,0.010850694444444444,13.606770833333332,0)" xlink:href="#P"/><use transform="matrix(0.010850694444444444,0,0,0.010850694444444444,18.98871527777778,0)" xlink:href="#aa"/><use transform="matrix(0.010850694444444444,0,0,0.010850694444444444,31.684027777777775,0)" xlink:href="#U"/></g><path d="M659 0H135v-1490h529c448 0 721 280 721 744 0 466-273 746-726 746zM440-263h204c287 0 437-148 437-483 0-333-150-481-435-481H440v964" id="aS"/><path d="M128 0v-1118h300V0H128zm150-1264c-91 0-165-68-165-154 0-85 74-154 165-154 90 0 165 69 165 154 0 86-75 154-165 154" id="aT"/><g id="H"><use transform="matrix(0.010850694444444444,0,0,0.010850694444444444,0,0)" xlink:href="#aS"/><use transform="matrix(0.010850694444444444,0,0,0.010850694444444444,16.048177083333332,0)" xlink:href="#aT"/><use transform="matrix(0.010850694444444444,0,0,0.010850694444444444,22.0703125,0)" xlink:href="#aI"/><use transform="matrix(0.010850694444444444,0,0,0.010850694444444444,35.14539930555556,0)" xlink:href="#ag"/></g><g id="I"><use transform="matrix(0.010850694444444444,0,0,0.010850694444444444,0,0)" xlink:href="#ai"/><use transform="matrix(0.010850694444444444,0,0,0.010850694444444444,13.606770833333332,0)" xlink:href="#P"/><use transform="matrix(0.010850694444444444,0,0,0.010850694444444444,18.98871527777778,0)" xlink:href="#aa"/><use transform="matrix(0.010850694444444444,0,0,0.010850694444444444,31.684027777777775,0)" xlink:href="#U"/><use transform="matrix(0.010850694444444444,0,0,0.010850694444444444,44.63975694444444,0)" xlink:href="#X"/><use transform="matrix(0.010850694444444444,0,0,0.010850694444444444,60.87239583333333,0)" xlink:href="#ae"/><use transform="matrix(0.010850694444444444,0,0,0.010850694444444444,74.1970486111111,0)" xlink:href="#aw"/><use transform="matrix(0.010850694444444444,0,0,0.010850694444444444,87.33723958333331,0)" xlink:href="#Q"/><use transform="matrix(0.010850694444444444,0,0,0.010850694444444444,100.46657986111109,0)" xlink:href="#R"/></g><g id="J"><use transform="matrix(0.010850694444444444,0,0,0.010850694444444444,0,0)" xlink:href="#at"/><use transform="matrix(0.010850694444444444,0,0,0.010850694444444444,7.996961805555555,0)" xlink:href="#ae"/><use transform="matrix(0.010850694444444444,0,0,0.010850694444444444,21.321614583333332,0)" xlink:href="#Y"/><use transform="matrix(0.010850694444444444,0,0,0.010850694444444444,26.70355902777778,0)" xlink:href="#Y"/><use transform="matrix(0.010850694444444444,0,0,0.010850694444444444,32.08550347222222,0)" xlink:href="#aR"/><use transform="matrix(0.010850694444444444,0,0,0.010850694444444444,48.12282986111111,0)" xlink:href="#P"/><use transform="matrix(0.010850694444444444,0,0,0.010850694444444444,53.50477430555556,0)" xlink:href="#aa"/><use transform="matrix(0.010850694444444444,0,0,0.010850694444444444,66.20008680555556,0)" xlink:href="#U"/><use transform="matrix(0.010850694444444444,0,0,0.010850694444444444,79.15581597222223,0)" xlink:href="#aC"/><use transform="matrix(0.010850694444444444,0,0,0.010850694444444444,87.26128472222223,0)" xlink:href="#aD"/></g></defs></g></svg>